REM DIRINDEX 1\2\6,1\2\7,1\2\8,1\2\9,1\3\10,1\3\11,1\4\12,1\4\13,1\4\14,1\5\15,1\5\16,1\5\17
REM DIRNAME folder01,folder02,folder03,folder04,folder05,folder06,folder07,folder08,folder09,folder10,folder11,folder12,folder13,folder14,folder15,folder16,folder17
TITLE ""
FILE "1900_2_sec08_0782_0800.mp3" MP3
  TRACK 01 AUDIO
    TITLE "0:"
    INDEX 01 00:00:00
  TRACK 02 AUDIO
    TITLE "13:cjc020_3681"
    INDEX 01 00:00:17
  TRACK 03 AUDIO
    TITLE "0:"
    INDEX 01 00:01:28
  TRACK 04 AUDIO
    TITLE "14:cjc020_3682"
    INDEX 01 00:01:36
  TRACK 05 AUDIO
    TITLE "0:"
    INDEX 01 00:02:67
  TRACK 06 AUDIO
    TITLE "13:cjc020_3683"
    INDEX 01 00:03:49
  TRACK 07 AUDIO
    TITLE "0:"
    INDEX 01 00:04:44
  TRACK 08 AUDIO
    TITLE "14:cjc020_3684"
    INDEX 01 00:04:56
  TRACK 09 AUDIO
    TITLE "0:"
    INDEX 01 00:07:07
  TRACK 10 AUDIO
    TITLE "13:cjc020_3685"
    INDEX 01 00:07:62
  TRACK 11 AUDIO
    TITLE "0:"
    INDEX 01 00:09:04
  TRACK 12 AUDIO
    TITLE "14:cjc020_3686"
    INDEX 01 00:09:08
  TRACK 13 AUDIO
    TITLE "0:"
    INDEX 01 00:11:64
  TRACK 14 AUDIO
    TITLE "13:cjc020_3687"
    INDEX 01 00:12:44
  TRACK 15 AUDIO
    TITLE "0:"
    INDEX 01 00:13:67
  TRACK 16 AUDIO
    TITLE "14:cjc020_3688"
    INDEX 01 00:13:71
  TRACK 17 AUDIO
    TITLE "0:"
    INDEX 01 00:16:55
  TRACK 18 AUDIO
    TITLE "13:cjc020_3689"
    INDEX 01 00:17:35
  TRACK 19 AUDIO
    TITLE "0:"
    INDEX 01 00:18:56
  TRACK 20 AUDIO
    TITLE "14:cjc020_3690"
    INDEX 01 00:18:58
  TRACK 21 AUDIO
    TITLE "0:"
    INDEX 01 00:20:10
  TRACK 22 AUDIO
    TITLE "13:cjc020_3691"
    INDEX 01 00:20:67
  TRACK 23 AUDIO
    TITLE "0:"
    INDEX 01 00:22:01
  TRACK 24 AUDIO
    TITLE "14:cjc020_3692"
    INDEX 01 00:22:09
  TRACK 25 AUDIO
    TITLE "0:"
    INDEX 01 00:23:32
  TRACK 26 AUDIO
    TITLE "13:cjc020_3693"
    INDEX 01 00:24:10
  TRACK 27 AUDIO
    TITLE "0:"
    INDEX 01 00:25:25
  TRACK 28 AUDIO
    TITLE "14:cjc020_3694"
    INDEX 01 00:25:33
  TRACK 29 AUDIO
    TITLE "0:"
    INDEX 01 00:28:25
  TRACK 30 AUDIO
    TITLE "13:cjc020_3695"
    INDEX 01 00:29:03
  TRACK 31 AUDIO
    TITLE "0:"
    INDEX 01 00:30:28
  TRACK 32 AUDIO
    TITLE "14:cjc020_3696"
    INDEX 01 00:30:30
  TRACK 33 AUDIO
    TITLE "0:"
    INDEX 01 00:34:32
  TRACK 34 AUDIO
    TITLE "13:cjc020_3697"
    INDEX 01 00:35:10
  TRACK 35 AUDIO
    TITLE "0:"
    INDEX 01 00:36:29
  TRACK 36 AUDIO
    TITLE "14:cjc020_3698"
    INDEX 01 00:36:31
  TRACK 37 AUDIO
    TITLE "0:"
    INDEX 01 00:40:07
  TRACK 38 AUDIO
    TITLE "13:cjc020_3699"
    INDEX 01 00:40:62
  TRACK 39 AUDIO
    TITLE "0:"
    INDEX 01 00:41:73
  TRACK 40 AUDIO
    TITLE "14:cjc020_3700"
    INDEX 01 00:42:00
  TRACK 41 AUDIO
    TITLE "0:"
    INDEX 01 00:45:37
  TRACK 42 AUDIO
    TITLE "13:cjc020_3701"
    INDEX 01 00:46:19
  TRACK 43 AUDIO
    TITLE "0:"
    INDEX 01 00:47:32
  TRACK 44 AUDIO
    TITLE "14:cjc020_3702"
    INDEX 01 00:47:34
  TRACK 45 AUDIO
    TITLE "0:"
    INDEX 01 00:50:62
  TRACK 46 AUDIO
    TITLE "13:cjc020_3703"
    INDEX 01 00:51:38
  TRACK 47 AUDIO
    TITLE "0:"
    INDEX 01 00:52:61
  TRACK 48 AUDIO
    TITLE "14:cjc020_3704"
    INDEX 01 00:52:67
  TRACK 49 AUDIO
    TITLE "0:"
    INDEX 01 00:55:34
  TRACK 50 AUDIO
    TITLE "13:cjc020_3705"
    INDEX 01 00:56:18
  TRACK 51 AUDIO
    TITLE "0:"
    INDEX 01 00:57:43
  TRACK 52 AUDIO
    TITLE "14:cjc020_3706"
    INDEX 01 00:57:46
  TRACK 53 AUDIO
    TITLE "0:"
    INDEX 01 01:00:29
  TRACK 54 AUDIO
    TITLE "13:cjc020_3707"
    INDEX 01 01:01:07
  TRACK 55 AUDIO
    TITLE "0:"
    INDEX 01 01:02:18
  TRACK 56 AUDIO
    TITLE "14:cjc020_3708"
    INDEX 01 01:02:20
  TRACK 57 AUDIO
    TITLE "0:"
    INDEX 01 01:05:19
  TRACK 58 AUDIO
    TITLE "13:cjc020_3709"
    INDEX 01 01:05:69
  TRACK 59 AUDIO
    TITLE "0:"
    INDEX 01 01:06:71
  TRACK 60 AUDIO
    TITLE "14:cjc020_3710"
    INDEX 01 01:07:02
  TRACK 61 AUDIO
    TITLE "0:"
    INDEX 01 01:09:16
  TRACK 62 AUDIO
    TITLE "13:cjc020_3711"
    INDEX 01 01:09:71
  TRACK 63 AUDIO
    TITLE "0:"
    INDEX 01 01:11:05
  TRACK 64 AUDIO
    TITLE "14:cjc020_3712"
    INDEX 01 01:11:07
  TRACK 65 AUDIO
    TITLE "0:"
    INDEX 01 01:14:65
  TRACK 66 AUDIO
    TITLE "13:cjc020_3713"
    INDEX 01 01:15:42
  TRACK 67 AUDIO
    TITLE "0:"
    INDEX 01 01:16:61
  TRACK 68 AUDIO
    TITLE "14:cjc020_3714"
    INDEX 01 01:16:63
  TRACK 69 AUDIO
    TITLE "0:"
    INDEX 01 01:19:19
  TRACK 70 AUDIO
    TITLE "13:cjc020_3715"
    INDEX 01 01:19:72
  TRACK 71 AUDIO
    TITLE "0:"
    INDEX 01 01:21:20
  TRACK 72 AUDIO
    TITLE "14:cjc020_3716"
    INDEX 01 01:21:23
  TRACK 73 AUDIO
    TITLE "0:"
    INDEX 01 01:23:67
  TRACK 74 AUDIO
    TITLE "13:cjc020_3717"
    INDEX 01 01:24:47
  TRACK 75 AUDIO
    TITLE "0:"
    INDEX 01 01:26:13
  TRACK 76 AUDIO
    TITLE "14:cjc020_3718"
    INDEX 01 01:26:17
  TRACK 77 AUDIO
    TITLE "0:"
    INDEX 01 01:29:07
